<svg width="80" height="66" viewBox="0 0 80 66" fill="none" xmlns="http://www.w3.org/2000/svg">
<path fill-rule="evenodd" clip-rule="evenodd" d="M51.0296 0C51.3601 0.000339851 51.586 0.483341 51.8573 1.77009C52.6605 5.57949 53.8272 7.93536 55.8514 9.83385C57.034 10.943 57.2555 11.303 56.8266 11.4209C55.9912 11.6499 55.2355 11.5959 53.3473 11.1727C53.1091 11.1193 52.9989 11.1466 52.9989 11.2569C53.0014 11.4466 54.3266 13.7518 55.0498 14.8244C55.7578 15.8743 56.9721 17.1277 57.9274 17.7956C59.4441 18.856 59.5374 19.034 58.7855 19.4226C58.1709 19.7399 56.7234 19.456 54.8542 18.6528L54.3697 18.4445L54.4607 18.7348C54.5108 18.8945 54.7715 19.4807 55.0394 20.0369C56.1357 22.3136 58.4504 24.9889 60.4785 26.3232C61.1629 26.7734 61.5968 27.1477 61.6474 27.3307C61.9205 28.3355 59.2538 28.4202 56.2563 27.5011C55.5408 27.2817 55.2769 27.2435 55.2769 27.3602C55.2775 27.6027 56.2334 29.0425 56.9616 29.897C58.6429 31.8697 61.0294 34.2612 62.0094 34.9548C63.8825 36.2804 63.9702 36.4436 63.0527 36.889C62.1412 37.3312 60.3398 37.2028 58.0321 36.5325C57.5256 36.3854 57.0162 36.2386 56.8999 36.2054C56.2697 36.0255 57.5062 37.6091 59.0104 38.9084C59.6367 39.4493 59.8173 39.6872 59.8779 40.0537C59.9884 40.7218 59.7377 40.8753 58.6861 40.7826C57.5159 40.6794 53.8049 39.2996 53.0795 38.698C52.9503 38.5919 52.9297 39.1875 52.9727 41.7533C53.0021 43.5044 53.0715 44.9868 53.1276 45.0506C53.1838 45.1106 54.2776 45.401 55.5573 45.6964C58.0446 46.2703 58.2321 46.3375 58.64 46.7944C58.925 47.1137 59.8093 48.6328 60.444 49.8939C60.6597 50.3224 60.892 50.7074 60.9609 50.7511C61.0293 50.7933 61.9564 50.9999 63.0202 51.2096C66.1065 51.8181 65.7983 51.6584 66.4827 53.0029C66.8094 53.6443 67.4945 54.9235 68.0053 55.8447C68.5158 56.7655 68.9667 57.6471 69.0077 57.8041C69.0503 57.9676 69.281 58.1826 69.5487 58.31C69.8054 58.4322 70.7105 59.0295 71.5609 59.6373C72.4116 60.2453 73.6308 61.1131 74.27 61.5651C74.9092 62.0171 75.9114 62.7429 76.4968 63.1775C77.1204 63.6404 77.5747 63.7529 77.8696 63.9673C78.0143 63.9673 79.2668 64.7203 79.75 64.9623C79.2668 65.2042 78.5414 65.2263 78.5414 65.2263H76.9551C76.8508 65.2263 71.3381 65.1431 59.948 65.2368C47.2694 65.341 38.0054 65.3384 22.7235 65.2242C13.6735 65.1565 7.9444 65.1293 4.9149 65.1421L2.38683 65.1852C2.30018 65.1916 2.25321 65.1986 2.24452 65.2063C2.22565 65.2252 2.15211 65.21 2.07186 65.1916L1.82701 65.1958C1.828 65.199 1.82845 65.2026 1.83015 65.2063C1.82744 65.2027 1.82445 65.1993 1.82177 65.1958L0 65.2273V64.4921L1.13429 63.8453C1.14185 63.8253 1.14873 63.8138 1.15417 63.8148C1.16478 63.8169 1.18073 63.8117 1.20336 63.8054L3.1423 62.701C4.0374 62.1375 5.1062 61.4338 6.0649 60.7595C7.6069 59.675 10.2695 57.4719 10.9913 56.6829L11.6087 56.0077L12.7901 55.8762C14.6751 55.6665 14.6759 55.6661 15.3004 54.9097C15.6133 54.5307 15.9695 54.0254 16.0925 53.7864C16.2206 53.5374 16.4463 53.3191 16.6209 53.2752C16.7885 53.2332 18.3017 53.2658 19.983 53.3478L23.0395 53.4972L23.9154 52.5485C24.3966 52.0266 25.0489 51.2816 25.3657 50.893C25.6823 50.5046 26.095 50.1112 26.2823 50.019C26.4705 49.9267 27.8611 49.4011 29.3734 48.8505L32.1243 47.8493L32.1254 43.9L30.4585 44.5952C28.9208 45.2366 28.7139 45.2904 27.8027 45.2904C26.0459 45.2903 25.9732 44.8465 27.5014 43.4488C28.1806 42.8276 28.8546 42.0469 29.3483 41.3095C30.2268 39.997 30.1998 39.8939 29.0343 40.1095C28.6822 40.1746 27.8929 40.2 27.2806 40.1663C26.3873 40.117 26.1312 40.0586 25.9872 39.8686C25.8886 39.7384 25.8077 39.5742 25.8073 39.5047C25.8091 39.4338 26.1894 39.0929 26.6548 38.7464C28.6413 37.2674 31.0434 34.5346 31.1428 33.6402C31.1762 33.3376 31.1738 33.3362 29.7857 33.3152C29.0206 33.3036 28.2943 33.2492 28.1721 33.1942C27.7816 33.0175 27.9342 32.6496 28.6514 32.0373C29.944 30.9336 31.1893 29.1336 31.7006 27.6315C31.8633 27.1534 31.9969 26.7432 31.9988 26.7155C31.9982 26.6219 31.3761 26.683 31.3144 26.7828C31.1115 27.1107 29.2164 27.0242 29.2164 26.6871C29.2172 26.6207 29.5321 26.2669 29.9165 25.9004C31.242 24.6359 32.5176 22.3135 33.0828 20.1368C33.8853 17.0459 34.038 16.9026 34.4055 18.8989C34.742 20.7269 35.6389 23.0069 36.5318 24.3038C36.7385 24.6039 37.317 25.2357 37.8167 25.7068C39.0187 26.84 38.9733 26.9925 37.4672 26.8858C36.8602 26.8428 36.2352 26.7708 36.0787 26.726C35.6377 26.5998 35.7149 26.9554 36.4376 28.3804C37.3514 30.182 38.1923 31.2301 39.4952 32.193C39.8254 32.4371 40.0956 32.7393 40.0958 32.864C40.0956 33.3166 39.7991 33.3904 38.1443 33.3499C37.2731 33.3286 36.5601 33.3433 36.5537 33.3825C36.5548 33.5546 37.5626 35.0941 38.2363 35.9519C38.9236 36.8269 39.9105 37.8258 41.0239 38.7737C41.4772 39.1596 41.4989 39.2126 41.4624 39.8444L41.4237 40.5102L40.8638 40.6196C40.4679 40.6974 39.9715 40.67 39.1718 40.5239C38.551 40.4104 38.0162 40.3435 37.981 40.3756C37.783 40.5735 40.8306 43.9912 41.2071 43.9936C41.3446 43.9936 41.4873 44.7261 41.3965 44.9664C41.2761 45.2831 40.5285 45.4069 39.6908 45.2483C38.2583 44.9771 36.7512 44.5392 36.0808 44.1997C35.7199 44.017 35.3657 43.8669 35.2928 43.8663C35.2088 43.8669 35.162 44.5385 35.162 45.7489C35.162 47.4211 35.1862 47.6415 35.3818 47.7168C35.503 47.7632 36.2576 47.8343 37.0581 47.8745L38.5147 47.9471L39.3999 47.5022C39.8876 47.2572 41.9367 46.3923 43.9539 45.5796C46.9804 44.3602 47.6997 44.1139 48.0651 44.1724C48.3085 44.2115 48.7413 44.2784 49.0268 44.3217L49.5458 44.4017L49.4935 41.5735C49.4647 40.0188 49.4313 38.6811 49.4181 38.6013C49.4028 38.5229 48.7487 38.8159 47.9636 39.2533C46.4449 40.0995 45.0028 40.5796 43.98 40.5796C43.4941 40.5796 43.3543 40.5258 43.1868 40.2704C42.8898 39.8174 43.0519 39.4878 44.0041 38.6055C44.4635 38.1797 45.0239 37.5739 45.2493 37.2592C45.7591 36.5473 45.6296 36.4654 44.4048 36.7228C43.3734 36.9396 40.6744 37.172 40.2182 37.0836C39.8277 37.0077 39.2963 36.2804 39.4114 35.9793C39.457 35.8614 40.0716 35.3599 40.7759 34.8644C43.0691 33.2512 45.6522 30.4721 46.8042 28.3804C47.0339 27.9634 47.3042 27.5271 47.4038 27.4096C47.6129 27.1633 47.5141 26.9267 47.204 26.929C47.0857 26.9301 46.5562 27.0681 46.0268 27.2371C45.4967 27.4063 44.6142 27.5795 44.0658 27.621C43.5176 27.6624 42.6414 27.7563 42.1195 27.8303C41.4429 27.9263 41.0712 27.9257 40.823 27.8282C40.3235 27.6317 40.3738 27.2471 40.9496 26.8553C43.7602 24.9437 44.5464 24.341 45.6438 23.2605C46.4688 22.4481 47.0859 21.7047 47.4404 21.0981C48.0107 20.1224 48.6459 18.6173 48.535 18.5045C48.4979 18.4682 47.7705 18.6141 46.9183 18.8284C45.0266 19.3042 44.1926 19.4083 43.7236 19.227C43.1967 19.023 43.3287 18.7536 44.3337 17.9849C46.13 16.611 47.2936 15.2947 48.5894 13.171C49.2975 12.0105 49.6752 11.1742 49.5489 11.0476C49.5144 11.0151 49.0961 11.0725 48.6187 11.1748C48.1402 11.2773 47.2865 11.3965 46.7216 11.4399C45.8491 11.5068 45.6619 11.4853 45.4764 11.3C45.2696 11.0934 45.3068 11.0382 46.1795 10.2503C47.3703 9.17538 48.4726 7.69039 49.1534 6.24423C49.7145 5.05229 50.5952 2.22807 50.5953 1.6218C50.5955 1.00556 50.8649 5.99075e-05 51.0296 0ZM41.8537 57.8272C41.3391 57.8782 39.9664 58.0152 38.8035 58.1312L36.6887 58.3415L34.9109 59.9738C33.02 61.7097 32.4624 62.3915 32.7721 62.5874C33.0384 62.7557 33.3264 62.727 34.147 62.4507C34.5586 62.3121 35.3304 61.9929 35.8621 61.7408C36.7689 61.3106 36.8812 61.2871 37.6713 61.3642C38.9495 61.489 40.5538 61.4732 40.8147 61.3337C41.0753 61.1919 42.566 58.6232 42.7024 58.0807L42.7892 57.7347L41.8537 57.8272ZM18.6562 57.1993C18.0013 57.1176 17.9313 57.1384 17.0468 57.6821C16.5381 57.9948 15.297 58.7185 14.2885 59.2913C12.5181 60.2967 11.2708 61.1423 11.2571 61.3464C11.2473 61.5241 11.8899 61.6913 12.6206 61.7008C13.0161 61.706 13.5957 61.7583 13.9087 61.8175C14.2217 61.8768 14.7341 61.9106 15.0472 61.8922C15.5835 61.8606 15.6897 61.7859 16.8815 60.6007C17.5771 59.9089 18.5446 58.9908 19.0318 58.5603L19.9181 57.7778L19.6293 57.5306C19.4647 57.3901 19.0468 57.2481 18.6562 57.1993ZM54.4073 55.7195C53.7709 55.0323 54.055 55.0289 51.4178 55.7542C50.4438 56.0221 49.3622 56.2808 49.0142 56.3285C47.3881 56.5513 47.2779 57.0372 48.6009 58.1501C49.1041 58.5733 49.6583 58.9562 49.8325 58.9999C50.0068 59.0436 50.9174 59.0131 51.8562 58.9326C53.802 58.7657 53.5169 58.6879 55.7195 59.9812C57.8566 61.236 58.2391 61.4344 58.5364 61.4368C58.7853 61.4388 58.8122 61.3924 58.7405 61.0908C58.695 60.8997 58.6231 60.6769 58.5804 60.5965C58.4806 60.4117 55.1694 56.5422 54.4073 55.7195ZM31.5886 51.3253C31.1923 51.3253 26.5484 53.1871 26.2844 53.4519C26.1681 53.5689 25.7095 54.3193 25.2642 55.119C24.8188 55.9188 24.2447 56.8472 23.9886 57.1825C23.7329 57.5173 23.5233 57.835 23.523 57.8882C23.5246 57.9413 23.8802 58.0809 24.314 58.1985C25.2159 58.4429 26.4377 58.8985 26.6161 59.0567C26.8236 59.2408 27.1435 59.1729 27.3936 58.8926C28.4137 57.7499 32.9893 54.2196 34.5028 53.4078C35.1421 53.0648 35.1619 53.0392 34.9454 52.8304C34.6325 52.5292 31.9491 51.3262 31.5886 51.3253ZM46.935 48.1648C46.749 48.1648 46.0021 48.3984 45.2755 48.6833C44.5489 48.9682 43.3058 49.4263 42.513 49.7014C41.7206 49.9763 40.8522 50.3123 40.5834 50.4492C40.1143 50.6884 39.9616 50.9754 40.2182 51.1339C40.2862 51.1772 40.5112 51.5636 40.7184 51.9942C41.2275 53.0525 41.8022 53.7274 42.1949 53.7275C42.3653 53.7275 43.0013 53.5351 43.6085 53.3005C44.2157 53.0659 44.9405 52.8025 45.2189 52.7147C45.4972 52.6269 46.0096 52.4125 46.3574 52.2382C46.7053 52.0639 47.3607 51.7887 47.813 51.6261C48.6665 51.3193 49.2033 50.8577 49.2036 50.4324C49.2036 50.2964 48.7699 49.73 48.2388 49.1745C47.5031 48.405 47.1928 48.1651 46.935 48.1648Z" fill="#03304A"/>
</svg>
