<svg width="93" height="121" viewBox="0 0 93 121" fill="none" xmlns="http://www.w3.org/2000/svg">
<path fill-rule="evenodd" clip-rule="evenodd" d="M57.9046 0C58.2351 0.000339851 58.461 0.483341 58.7323 1.77009C59.5355 5.57949 60.7022 7.93536 62.7264 9.83385C63.909 10.943 64.1305 11.303 63.7016 11.4209C62.8662 11.6499 62.1105 11.5959 60.2223 11.1727C59.9841 11.1193 59.8739 11.1466 59.8739 11.2569C59.8764 11.4466 61.2016 13.7518 61.9248 14.8244C62.6328 15.8743 63.8471 17.1277 64.8024 17.7956C66.3191 18.856 66.4124 19.034 65.6605 19.4226C65.0459 19.7399 63.5984 19.456 61.7292 18.6528L61.2447 18.4445L61.3357 18.7348C61.3858 18.8945 61.6465 19.4807 61.9144 20.0369C63.0107 22.3136 65.3254 24.9889 67.3535 26.3232C68.0379 26.7734 68.4718 27.1477 68.5224 27.3307C68.7955 28.3355 66.1288 28.4202 63.1313 27.5011C62.4158 27.2817 62.1519 27.2435 62.1519 27.3602C62.1525 27.6027 63.1084 29.0425 63.8366 29.897C65.5179 31.8697 67.9044 34.2612 68.8844 34.9548C70.7575 36.2804 70.8452 36.4436 69.9277 36.889C69.0162 37.3312 67.2148 37.2028 64.9071 36.5325C64.4006 36.3854 63.8912 36.2386 63.7749 36.2054C63.1447 36.0255 64.3812 37.6091 65.8854 38.9084C66.5117 39.4493 66.6923 39.6872 66.7529 40.0537C66.8633 40.7218 66.6127 40.8753 65.5611 40.7826C64.3909 40.6794 60.6799 39.2996 59.9545 38.698C59.8253 38.5919 59.8047 39.1875 59.8477 41.7533C59.8771 43.5044 59.9465 44.9868 60.0026 45.0506C60.0588 45.1106 61.1526 45.401 62.4323 45.6964C64.9196 46.2703 65.1071 46.3375 65.515 46.7944C65.8 47.1137 66.6843 48.6328 67.319 49.8939C67.5347 50.3224 67.767 50.7074 67.8359 50.7511C67.9043 50.7933 68.8314 50.9999 69.8952 51.2096C72.9815 51.8181 72.6732 51.6584 73.3577 53.0028C73.6844 53.6443 74.3695 54.9235 74.8803 55.8447C75.3908 56.7655 75.8417 57.6471 75.8827 57.8041C75.9253 57.9676 76.156 58.1826 76.4237 58.31C76.6804 58.4322 77.5855 59.0295 78.4359 59.6373C79.2866 60.2453 80.5058 61.1131 81.145 61.5651C81.7842 62.0171 82.7864 62.7429 83.3718 63.1775C83.9954 63.6404 84.4497 63.7529 84.7446 63.9673C84.8893 63.9673 86.1418 64.7203 86.625 64.9623C86.1418 65.2042 85.4164 65.2263 85.4164 65.2263H83.8301C83.7258 65.2263 78.2131 65.1431 66.823 65.2368C54.1444 65.341 44.8804 65.3384 29.5985 65.2242C20.5485 65.1565 14.8194 65.1293 11.7899 65.1421L9.26183 65.1852C9.17518 65.1916 9.12821 65.1986 9.11952 65.2063C9.10065 65.2252 9.02711 65.21 8.94686 65.1916L8.70201 65.1958C8.703 65.199 8.70345 65.2026 8.70515 65.2063C8.70244 65.2027 8.69945 65.1993 8.69677 65.1958L6.875 65.2273V64.4921L8.00929 63.8453C8.01685 63.8253 8.02373 63.8138 8.02917 63.8148C8.03978 63.8168 8.05573 63.8117 8.07836 63.8054L10.0173 62.701C10.9124 62.1375 11.9812 61.4338 12.9399 60.7595C14.4819 59.675 17.1445 57.4719 17.8663 56.6829L18.4837 56.0077L19.6651 55.8762C21.5501 55.6665 21.5509 55.6661 22.1754 54.9097C22.4883 54.5307 22.8445 54.0254 22.9675 53.7864C23.0956 53.5374 23.3213 53.3191 23.4959 53.2752C23.6635 53.2332 25.1767 53.2658 26.858 53.3478L29.9145 53.4972L30.7904 52.5485C31.2716 52.0266 31.9239 51.2816 32.2407 50.893C32.5573 50.5046 32.97 50.1112 33.1573 50.019C33.3455 49.9267 34.7361 49.4011 36.2484 48.8505L38.9993 47.8493L39.0004 43.9L37.3335 44.5952C35.7958 45.2366 35.5889 45.2904 34.6777 45.2904C32.9209 45.2903 32.8482 44.8465 34.3764 43.4488C35.0556 42.8276 35.7296 42.0469 36.2233 41.3095C37.1018 39.997 37.0748 39.8939 35.9093 40.1095C35.5572 40.1746 34.7679 40.2 34.1556 40.1663C33.2623 40.1171 33.0062 40.0586 32.8622 39.8686C32.7636 39.7384 32.6827 39.5742 32.6823 39.5047C32.6841 39.4338 33.0644 39.0929 33.5298 38.7464C35.5163 37.2674 37.9184 34.5346 38.0178 33.6402C38.0512 33.3376 38.0488 33.3362 36.6607 33.3152C35.8956 33.3036 35.1693 33.2492 35.0471 33.1942C34.6566 33.0175 34.8092 32.6496 35.5264 32.0373C36.819 30.9336 38.0643 29.1336 38.5756 27.6315C38.7383 27.1534 38.8719 26.7432 38.8738 26.7155C38.8732 26.6219 38.2511 26.683 38.1894 26.7828C37.9865 27.1107 36.0914 27.0242 36.0914 26.6871C36.0922 26.6207 36.4071 26.2669 36.7915 25.9004C38.117 24.6359 39.3926 22.3135 39.9578 20.1368C40.7603 17.0459 40.913 16.9026 41.2805 18.8989C41.617 20.7269 42.5139 23.0069 43.4068 24.3038C43.6135 24.6039 44.192 25.2357 44.6917 25.7068C45.8937 26.84 45.8483 26.9925 44.3422 26.8858C43.7352 26.8428 43.1102 26.7708 42.9537 26.726C42.5127 26.5998 42.5899 26.9554 43.3126 28.3804C44.2264 30.182 45.0673 31.2301 46.3702 32.193C46.7004 32.4371 46.9706 32.7393 46.9708 32.864C46.9706 33.3166 46.6741 33.3904 45.0193 33.3499C44.1481 33.3285 43.4351 33.3433 43.4287 33.3825C43.4298 33.5546 44.4376 35.0941 45.1113 35.9519C45.7986 36.8269 46.7855 37.8258 47.8989 38.7737C48.3522 39.1596 48.3739 39.2126 48.3374 39.8444L48.2987 40.5102L47.7388 40.6196C47.3429 40.6974 46.8465 40.67 46.0468 40.5239C45.426 40.4104 44.8912 40.3435 44.856 40.3756C44.658 40.5735 47.7056 43.9912 48.0821 43.9936C48.2196 43.9936 48.3623 44.7261 48.2715 44.9664C48.1511 45.2831 47.4035 45.4069 46.5658 45.2483C45.1333 44.9771 43.6262 44.5392 42.9558 44.1997C42.5949 44.017 42.2407 43.8669 42.1678 43.8663C42.0838 43.8669 42.037 44.5385 42.037 45.7489C42.037 47.4212 42.0612 47.6415 42.2568 47.7168C42.378 47.7632 43.1326 47.8343 43.9331 47.8745L45.3897 47.9471L46.2749 47.5022C46.7626 47.2572 48.8117 46.3923 50.8288 45.5796C53.8554 44.3602 54.5747 44.1139 54.9401 44.1724C55.1835 44.2115 55.6163 44.2784 55.9018 44.3217L56.4208 44.4017L56.3685 41.5735C56.3397 40.0188 56.3063 38.6811 56.2931 38.6013C56.2778 38.5229 55.6237 38.8159 54.8386 39.2533C53.3199 40.0995 51.8778 40.5796 50.855 40.5796C50.3691 40.5796 50.2293 40.5258 50.0618 40.2704C49.7648 39.8174 49.9269 39.4878 50.8791 38.6055C51.3385 38.1797 51.8989 37.5739 52.1243 37.2592C52.6341 36.5473 52.5046 36.4654 51.2798 36.7228C50.2484 36.9396 47.5494 37.172 47.0932 37.0836C46.7027 37.0077 46.1713 36.2804 46.2864 35.9793C46.332 35.8614 46.9466 35.3599 47.6509 34.8644C49.9441 33.2512 52.5272 30.4721 53.6792 28.3804C53.9089 27.9634 54.1792 27.5271 54.2788 27.4096C54.4879 27.1633 54.3891 26.9267 54.079 26.929C53.9607 26.9301 53.4312 27.0681 52.9018 27.2371C52.3717 27.4063 51.4892 27.5795 50.9408 27.621C50.3926 27.6624 49.5164 27.7563 48.9945 27.8303C48.3179 27.9263 47.9462 27.9257 47.698 27.8282C47.1985 27.6317 47.2488 27.2471 47.8246 26.8553C50.6352 24.9437 51.4214 24.341 52.5188 23.2605C53.3438 22.4481 53.9609 21.7047 54.3154 21.0981C54.8857 20.1224 55.5209 18.6173 55.41 18.5045C55.3729 18.4682 54.6455 18.6141 53.7933 18.8284C51.9016 19.3041 51.0676 19.4083 50.5986 19.227C50.0717 19.023 50.2037 18.7536 51.2087 17.9849C53.005 16.611 54.1686 15.2947 55.4644 13.171C56.1725 12.0105 56.5502 11.1742 56.4239 11.0476C56.3894 11.0151 55.9711 11.0725 55.4937 11.1748C55.0152 11.2773 54.1615 11.3965 53.5966 11.4399C52.7241 11.5068 52.5369 11.4853 52.3514 11.3C52.1446 11.0934 52.1818 11.0382 53.0545 10.2503C54.2453 9.17538 55.3476 7.69039 56.0284 6.24423C56.5895 5.05229 57.4702 2.22807 57.4703 1.6218C57.4705 1.00556 57.7399 5.99075e-05 57.9046 0ZM48.7287 57.8272C48.2141 57.8782 46.8414 58.0152 45.6785 58.1312L43.5637 58.3415L41.7859 59.9738C39.895 61.7097 39.3374 62.3915 39.6471 62.5874C39.9134 62.7557 40.2014 62.727 41.022 62.4507C41.4336 62.3121 42.2054 61.9929 42.7371 61.7408C43.6439 61.3106 43.7562 61.2871 44.5463 61.3642C45.8245 61.489 47.4288 61.4732 47.6897 61.3337C47.9503 61.1919 49.441 58.6231 49.5774 58.0807L49.6642 57.7347L48.7287 57.8272ZM25.5312 57.1993C24.8763 57.1176 24.8063 57.1384 23.9218 57.6821C23.4131 57.9948 22.172 58.7185 21.1635 59.2913C19.3931 60.2967 18.1458 61.1423 18.1321 61.3464C18.1223 61.5241 18.7649 61.6913 19.4956 61.7008C19.8911 61.706 20.4707 61.7584 20.7837 61.8176C21.0967 61.8768 21.6091 61.9106 21.9222 61.8922C22.4585 61.8606 22.5647 61.7859 23.7565 60.6007C24.4521 59.9089 25.4196 58.9908 25.9068 58.5603L26.7931 57.7778L26.5043 57.5306C26.3397 57.3901 25.9218 57.2481 25.5312 57.1993ZM61.2823 55.7195C60.6459 55.0323 60.93 55.0289 58.2928 55.7542C57.3188 56.0221 56.2372 56.2808 55.8892 56.3285C54.2631 56.5513 54.1529 57.0372 55.4759 58.1501C55.9791 58.5733 56.5333 58.9562 56.7075 58.9999C56.8818 59.0436 57.7924 59.0131 58.7312 58.9326C60.677 58.7657 60.3919 58.6879 62.5945 59.9812C64.7316 61.236 65.1141 61.4344 65.4114 61.4368C65.6603 61.4388 65.6872 61.3924 65.6155 61.0908C65.57 60.8997 65.4981 60.6769 65.4554 60.5965C65.3556 60.4117 62.0444 56.5422 61.2823 55.7195ZM38.4636 51.3253C38.0673 51.3253 33.4234 53.1871 33.1594 53.4519C33.0431 53.5689 32.5845 54.3193 32.1392 55.119C31.6938 55.9188 31.1197 56.8472 30.8636 57.1825C30.6079 57.5173 30.3983 57.835 30.398 57.8882C30.3996 57.9413 30.7552 58.0809 31.189 58.1985C32.0909 58.4429 33.3127 58.8985 33.4911 59.0567C33.6986 59.2408 34.0185 59.1729 34.2686 58.8926C35.2887 57.7499 39.8643 54.2196 41.3778 53.4078C42.0171 53.0648 42.0369 53.0392 41.8204 52.8304C41.5075 52.5292 38.8241 51.3262 38.4636 51.3253ZM53.81 48.1648C53.624 48.1648 52.8771 48.3984 52.1505 48.6833C51.4239 48.9682 50.1808 49.4263 49.388 49.7014C48.5956 49.9763 47.7272 50.3123 47.4584 50.4492C46.9893 50.6884 46.8366 50.9754 47.0932 51.1339C47.1612 51.1772 47.3862 51.5636 47.5934 51.9942C48.1025 53.0525 48.6772 53.7274 49.0699 53.7275C49.2403 53.7275 49.8764 53.5351 50.4835 53.3005C51.0907 53.0659 51.8155 52.8025 52.0939 52.7147C52.3722 52.6269 52.8845 52.4125 53.2324 52.2382C53.5803 52.0639 54.2357 51.7887 54.688 51.6261C55.5415 51.3193 56.0783 50.8577 56.0786 50.4324C56.0786 50.2964 55.6449 49.73 55.1138 49.1745C54.3781 48.405 54.0678 48.1651 53.81 48.1648Z" fill="black"/>
<path d="M12.513 57.4581C12.5054 57.7534 12.5004 58.0506 12.5004 58.3478V59.3449H8.0794V58.3478C8.0794 58.0124 8.08446 57.6769 8.093 57.3434L12.513 57.4581Z" fill="black"/>
<path d="M84.2445 58.3478V59.3449H79.8234V58.3478C79.8234 58.0506 79.8195 57.7534 79.8119 57.4581L84.2308 57.3434C84.2394 57.6769 84.2444 58.0124 84.2445 58.3478Z" fill="black"/>
<path d="M13.0592 52.1762C12.9533 52.7542 12.8614 53.3382 12.785 53.9263L8.40169 53.351C8.48802 52.6858 8.59154 52.0257 8.71142 51.3716L13.0592 52.1762Z" fill="black"/>
<path d="M83.6124 51.3716C83.7323 52.0257 83.8369 52.6858 83.9232 53.351L79.5388 53.9263C79.4625 53.3382 79.3706 52.7542 79.2647 52.1762L83.6124 51.3716Z" fill="black"/>
<path d="M14.4227 47.05C14.2272 47.6046 14.0455 48.1663 13.8785 48.7338L9.63958 47.4728C9.82866 46.8303 10.0347 46.1949 10.2559 45.567L14.4227 47.05Z" fill="black"/>
<path d="M82.069 45.567C82.2903 46.1951 82.4962 46.8312 82.6853 47.4738L78.4453 48.7338C78.2783 48.1663 78.0966 47.6046 77.9012 47.05L82.069 45.567Z" fill="black"/>
<path d="M16.573 42.2024C16.2927 42.7202 16.0251 43.2465 15.7715 43.7801L11.7836 41.8638C12.0707 41.26 12.3728 40.6647 12.6898 40.079L16.573 42.2024Z" fill="black"/>
<path d="M79.6351 40.079C79.9521 40.6647 80.2542 41.26 80.5413 41.8638L76.5524 43.7801C76.2988 43.2466 76.0321 42.7201 75.7519 42.2024L79.6351 40.079Z" fill="black"/>
<path d="M19.4548 37.7514C19.097 38.2194 18.7502 38.6971 18.4167 39.1839L14.7763 36.6639C15.1535 36.1134 15.5438 35.5723 15.9483 35.0432L19.4548 37.7514Z" fill="black"/>
<path d="M76.3756 35.0432C76.7801 35.5724 77.1714 36.1133 77.5486 36.6639L73.9071 39.1839C73.5736 38.6972 73.2268 38.2194 72.8691 37.7514L74.3707 36.5914H74.5056V36.4872L76.3756 35.0432Z" fill="black"/>
<path d="M22.9916 33.8053C22.5653 34.212 22.15 34.6305 21.7453 35.059L18.5392 31.9994C18.9965 31.5152 19.4659 31.0424 19.9476 30.5827L22.9916 33.8053Z" fill="black"/>
<path d="M27.0966 30.4607C26.6122 30.796 26.136 31.1434 25.6704 31.503L22.9769 27.9797C23.5035 27.573 24.0416 27.1798 24.5894 26.8006L27.0966 30.4607Z" fill="black"/>
<path d="M31.6693 27.8019C31.1385 28.0569 30.6149 28.3259 30.0998 28.6075L27.9871 24.7035C28.5698 24.3848 29.1621 24.0811 29.7628 23.7926L31.6693 27.8019Z" fill="black"/>
<path d="M53.1562 103.288C54.9675 103.288 55.0954 103.306 55.2348 103.567C55.3384 103.764 55.3674 105.544 55.3322 109.487C55.2877 114.472 55.2537 115.215 55.039 115.872C54.2167 118.392 52.3434 120.152 49.7857 120.809C48.7844 121.066 46.3055 121.063 45.2424 120.804C43.5412 120.389 41.9623 119.309 41.0634 117.943C39.8688 116.129 39.7617 115.385 39.7582 108.9C39.7557 104.582 39.7849 103.849 39.9654 103.589C40.1646 103.303 40.2651 103.288 42.0342 103.288C43.3872 103.288 43.9333 103.335 44.0381 103.462C44.1335 103.578 44.1954 105.483 44.2225 109.112C44.263 114.553 44.2652 114.591 44.585 115.303C45.1853 116.639 46.4829 117.36 47.9696 117.183C49.2073 117.036 50.0084 116.438 50.5476 115.262C50.8516 114.598 50.8577 114.495 50.8978 109.112C50.9248 105.483 50.9867 103.578 51.0821 103.462C51.1874 103.335 51.7461 103.288 53.1562 103.288Z" fill="black"/>
<path d="M21.9486 103.288C23.7311 103.288 23.8783 103.308 24.0122 103.559C24.1059 103.736 24.1435 104.895 24.1184 106.874L24.0798 109.919H31.0044L31.0763 103.356L33.0092 103.319C34.3197 103.293 35.0024 103.33 35.1289 103.436C35.2843 103.566 35.315 104.99 35.315 111.949C35.315 118.904 35.2841 120.33 35.1289 120.46C35.0024 120.566 34.3198 120.604 33.0092 120.579L31.0763 120.541L31.0044 113.708L24.0798 113.707L24.1175 116.798C24.1406 118.653 24.1017 120.034 24.0201 120.249L23.884 120.608H21.9565C20.6369 120.608 19.978 120.558 19.8674 120.446C19.6344 120.206 19.6345 103.7 19.8674 103.451C19.9779 103.34 20.6352 103.288 21.9486 103.288Z" fill="black"/>
<path fill-rule="evenodd" clip-rule="evenodd" d="M63.7744 103.318C68.0908 103.276 68.886 103.369 70.3734 104.088C73.4246 105.562 73.7902 109.455 71.0299 111.082L70.4418 111.429L71.381 111.901C72.7327 112.581 73.4454 113.664 73.6149 115.294C73.8385 117.446 72.3668 119.264 69.6606 120.178C68.6416 120.523 68.5251 120.531 64.3713 120.58C60.803 120.621 60.0978 120.597 59.9632 120.434C59.8423 120.287 59.8115 118.171 59.8377 111.798L59.8719 103.356L63.7744 103.318ZM64.0439 117.361H65.2701C65.9445 117.361 66.8121 117.301 67.1976 117.228C67.5832 117.154 68.1134 116.991 68.3756 116.866C69.6274 116.268 69.6983 114.489 68.4994 113.759C68.1492 113.546 67.7484 113.497 66.0618 113.459L64.0439 113.414V117.361ZM64.0439 110.356L65.5914 110.298C66.6739 110.258 67.2818 110.17 67.6155 110.009C68.249 109.703 68.5511 109.157 68.5511 108.318C68.5511 107.787 68.4762 107.549 68.2062 107.227C67.7528 106.685 67.1653 106.537 65.4562 106.536H64.0439V110.356Z" fill="black"/>
<path fill-rule="evenodd" clip-rule="evenodd" d="M11.5656 91.2762C13.0162 91.1985 13.9742 91.5529 14.938 92.522C15.9813 93.5712 16.3682 95.1892 15.9491 96.7542C15.3636 98.9409 12.8977 100.221 10.5123 99.576C8.64174 99.0704 7.32065 97.131 7.49902 95.1528C7.7018 92.9049 9.28175 91.3986 11.5656 91.2762ZM11.8755 93.1396C11.102 93.1396 10.5879 93.3756 10.1051 93.9526C9.15563 95.0873 9.41881 96.7079 10.694 97.5795C11.3103 98.0006 12.4383 97.9523 13.1035 97.4761C14.0111 96.8262 14.2989 95.4413 13.7521 94.353C13.3455 93.5437 12.7203 93.1397 11.8755 93.1396Z" fill="black"/>
<path d="M43.242 93.6486C44.1224 91.8267 45.9473 90.994 48.3892 91.3008C49.4835 91.4383 49.5153 91.478 49.2853 92.4142C49.1108 93.1247 49.0569 93.2039 48.7631 93.1799C46.8403 93.0227 46.0669 93.2264 45.439 94.0542C44.9294 94.7261 44.8654 95.9613 45.3012 96.7253C45.8416 97.6726 47.4355 98.174 48.5507 97.7477C48.9293 97.603 49.0544 97.7061 49.2766 98.3487C49.3537 98.5719 49.46 98.8619 49.5127 98.9926C49.5873 99.1778 49.4994 99.2752 49.1151 99.4367C48.5394 99.6785 46.7591 99.8036 46.0798 99.6496C44.8029 99.3601 43.8269 98.5826 43.2438 97.3911C42.7853 96.454 42.7843 94.5954 43.242 93.6486Z" fill="black"/>
<path d="M4.47252 91.2456C5.8601 91.2466 6.51951 91.4339 6.51857 91.8264C6.51755 92.235 6.26644 93.114 6.12533 93.2018C6.06184 93.2413 5.69574 93.2136 5.31253 93.1405C3.49811 92.7946 2.0759 93.8488 2.08152 95.5356C2.08457 96.44 2.5242 97.1827 3.29107 97.5795C3.78916 97.8372 4.04988 97.8827 4.77008 97.837C5.25092 97.8066 5.74094 97.7386 5.85937 97.6864C6.02532 97.613 6.14033 97.7512 6.36408 98.2926C6.52344 98.6782 6.65374 99.0504 6.65374 99.1187C6.65225 99.5939 4.20513 99.8948 3.03213 99.5638C1.0864 99.0145 0.0130449 97.5782 0.000369475 95.5076C-0.0052248 94.5872 0.0497259 94.3087 0.370781 93.6512C1.12815 92.1005 2.58836 91.2442 4.47252 91.2456Z" fill="black"/>
<path d="M32.5097 91.4234C32.6974 91.1979 33.9911 91.1858 34.2117 91.4076C34.3298 91.527 34.3732 92.6287 34.3732 95.5199C34.3732 99.9331 34.4457 99.6347 33.3752 99.6347H32.8029L28.9232 94.6061L28.7889 99.5673L27.9761 99.6067C27.5291 99.6284 27.1201 99.6025 27.0676 99.5497C27.0153 99.4898 26.9729 97.6343 26.9729 95.42V91.3857L27.288 91.306C27.4615 91.2622 27.8371 91.2455 28.1227 91.2692C28.6212 91.3108 28.716 91.4072 30.4654 93.6591L32.2876 96.0052L32.3245 93.8037C32.3471 92.4609 32.4197 91.5325 32.5097 91.4234Z" fill="black"/>
<path d="M54.2394 91.2447C56.1612 91.2447 57.5026 91.2997 57.6609 91.3849C57.8622 91.4933 57.9216 91.6709 57.9216 92.1698C57.9215 92.5241 57.8488 92.8871 57.76 92.9767C57.6596 93.0777 57.1633 93.1388 56.4478 93.1387H55.2971L55.3383 96.1112C55.3653 98.0729 55.3288 99.177 55.2321 99.3588C55.1106 99.587 54.9527 99.6338 54.3061 99.6338C53.877 99.6338 53.4856 99.5932 53.4362 99.5436C53.3869 99.494 53.3458 98.0326 53.3458 96.2961V93.1387H52.1398C50.788 93.1387 50.6546 93.0497 50.6546 92.1427C50.6546 91.2594 50.7144 91.2447 54.2394 91.2447Z" fill="black"/>
<path d="M59.4287 91.4068C59.6391 91.1964 60.9138 91.1963 61.1236 91.4068C61.2417 91.5255 61.2851 92.6097 61.2851 95.4393C61.2851 98.2689 61.2416 99.353 61.1236 99.4718C61.0348 99.5611 60.6531 99.6338 60.2757 99.6338C59.8986 99.6338 59.5178 99.561 59.4287 99.4718C59.3106 99.353 59.2672 98.2689 59.2672 95.4393C59.2672 92.6097 59.3106 91.5255 59.4287 91.4068Z" fill="black"/>
<path d="M76.5176 91.4068C76.7765 91.151 83.131 91.1786 83.3439 91.4366C83.4352 91.5473 83.4852 91.9348 83.4615 92.3503L83.4203 93.0713L80.931 93.1493V96.2295C80.931 98.444 80.8855 99.3546 80.7695 99.4718C80.6807 99.5611 80.299 99.6338 79.9216 99.6338C79.5441 99.6338 79.1625 99.5611 79.0737 99.4718C78.9576 99.3545 78.9121 98.4427 78.9121 96.2242V93.1387H77.8466C76.3945 93.1387 76.3561 93.1164 76.3561 92.2723C76.3561 91.8858 76.4288 91.4961 76.5176 91.4068Z" fill="black"/>
<path d="M23.2248 91.4243C23.4114 91.1983 24.7059 91.1856 24.9268 91.4076C25.1573 91.6394 25.1573 99.2397 24.9268 99.4718C24.7034 99.6965 23.5376 99.6782 23.3065 99.4464C23.2036 99.3429 22.3359 98.2431 21.3789 97.0022L19.6392 94.7454L19.6024 97.0109C19.5796 98.4017 19.5078 99.3462 19.4172 99.456C19.2298 99.6816 17.937 99.6942 17.7152 99.4727C17.4847 99.2409 17.4847 91.6394 17.7152 91.4076C17.804 91.3183 18.1824 91.2462 18.5561 91.2473L19.2355 91.2491L23.0028 96.1314L23.0396 93.8667C23.0624 92.4778 23.1343 91.5348 23.2248 91.4243Z" fill="black"/>
<path d="M69.3227 91.4138C69.5523 91.2387 70.656 91.1827 71.0299 91.3271C71.1467 91.3723 71.2421 91.4871 71.2423 91.5829C71.2423 91.8475 68.3539 99.1819 68.1544 99.4236C68.0283 99.5762 67.7332 99.6336 67.0879 99.6321C66.5981 99.631 66.1262 99.5844 66.0381 99.5287C65.795 99.3732 62.8555 91.6991 62.9458 91.4558C63.0054 91.2996 63.221 91.2447 63.7788 91.2447C64.193 91.2447 64.6358 91.3004 64.7619 91.3682C64.9043 91.4465 65.3754 92.58 65.9978 94.3433C66.8857 96.8592 67.2054 97.575 67.2056 97.0442C67.2056 96.6668 69.1231 91.5673 69.3227 91.4138Z" fill="black"/>
<path d="M90.8338 91.3262C91.2016 91.1842 92.5769 91.2379 92.7394 91.4006C92.8572 91.5191 92.8359 91.6431 92.6516 91.9088C92.5175 92.102 91.8389 93.2032 91.1436 94.3565L89.8788 96.4546L89.7445 99.5664L88.9317 99.6058C88.4847 99.6275 88.0758 99.6025 88.0232 99.5497C87.9707 99.497 87.9275 98.8203 87.9275 98.0464V96.6395L86.4477 94.148C85.6336 92.7774 84.9678 91.6 84.9678 91.532C84.9681 91.3335 85.3396 91.2447 86.1685 91.2447C87.1037 91.2447 87.1066 91.2471 88.0776 93.1028C88.475 93.8622 88.8305 94.4847 88.8694 94.4887C88.9064 94.489 89.316 93.7952 89.7796 92.9478C90.2431 92.1006 90.7176 91.3714 90.8338 91.3262Z" fill="black"/>
<path d="M73.1172 91.3849C73.495 91.1815 74.5462 91.2113 74.727 91.4304C74.8354 91.5641 74.8691 92.7735 74.8438 95.5908L74.8086 99.5664L74.0002 99.6058C73.4873 99.6308 73.1301 99.5836 73.0242 99.477C72.8991 99.35 72.8574 98.3344 72.8574 95.4174C72.8574 91.7092 72.8695 91.5184 73.1172 91.3849Z" fill="black"/>
<path d="M38.8243 91.2447C41.4109 91.2447 41.4073 91.2434 41.3443 92.3503L41.3031 93.0713L38.2423 93.2071L38.2256 93.9123L38.2081 94.6184L40.6307 94.6955V96.1839L38.2757 96.2619V96.933C38.2757 97.3019 38.2906 97.6421 38.309 97.689C38.3275 97.7354 38.9308 97.7629 39.6494 97.7494C41.3833 97.7171 41.5296 97.8009 41.4777 98.7972L41.4373 99.5664L38.9401 99.6032C37.5676 99.6234 36.4026 99.5982 36.3499 99.5471C36.299 99.4959 36.2569 97.6801 36.2568 95.512C36.2568 92.6262 36.3002 91.5256 36.4184 91.4068C36.5313 91.2935 37.2586 91.2447 38.8243 91.2447Z" fill="black"/>
<path d="M16.6224 71.7541C17.3701 71.4996 17.6937 71.468 19.0336 71.5229C21.2694 71.6144 23.5784 72.423 23.7208 73.1637C23.7829 73.488 22.9604 75.3742 22.7157 75.4686C22.6098 75.5087 22.0568 75.3528 21.486 75.1217C19.6862 74.393 17.9898 74.4568 17.5572 75.2698C17.3079 75.7384 17.395 76.4295 17.7521 76.8169C18.1099 77.2051 18.5567 77.4215 20.4432 78.1187C22.6275 78.926 23.6409 79.7799 24.0798 81.1832C24.7071 83.1891 23.7427 85.2654 21.694 86.3186C20.3302 87.0197 17.9518 87.2448 16.1405 86.8443C14.3634 86.4512 12.8418 85.6834 12.8463 85.1824C12.8473 85.0559 13.0747 84.4957 13.351 83.9375C13.7039 83.2246 13.9355 82.9108 14.1304 82.8827C14.283 82.8608 14.8581 83.024 15.4085 83.2454C17.559 84.1104 19.3169 84.1038 20.05 83.2279C20.327 82.8968 20.3851 82.7161 20.3204 82.3904C20.1857 81.7128 19.727 81.3968 18.0408 80.8196C16.0257 80.1298 15.2558 79.7355 14.4552 78.9825C13.5949 78.1733 13.2071 77.254 13.2053 76.0214C13.2022 74.042 14.4395 72.4973 16.6224 71.7541Z" fill="black"/>
<path fill-rule="evenodd" clip-rule="evenodd" d="M46.5213 71.7594C48.0011 71.7594 48.2183 71.7886 48.4269 72.0205C48.6971 72.3218 53.7496 85.8036 53.7496 86.2231C53.7496 86.6619 53.33 86.7794 51.7571 86.7794C50.6788 86.7794 50.2437 86.7295 50.1324 86.5946C50.0487 86.4931 49.7817 85.8692 49.539 85.2078C49.2965 84.5469 49.0549 84.0216 49.0018 84.0391C48.9491 84.0577 47.7325 84.0724 46.2992 84.0724H43.6932L43.2561 85.2568C43.0156 85.908 42.7239 86.5173 42.6074 86.6103C42.2731 86.8764 39.5665 86.8407 39.2939 86.5665C39.1777 86.4496 39.0832 86.2724 39.0832 86.1732C39.0839 86.0132 40.154 83.1399 43.4851 74.3569C44.0249 72.9339 44.4668 71.9656 44.6122 71.8873C44.7446 71.8166 45.6034 71.7594 46.5213 71.7594ZM46.4484 76.5497C46.4272 76.5283 46.0547 77.4971 45.6207 78.7022C45.1868 79.9071 44.803 80.9692 44.7684 81.0623C44.7208 81.1917 45.102 81.2313 46.4019 81.2313C47.3349 81.2313 48.098 81.2157 48.0977 81.1972C48.095 81.1225 46.4869 76.5911 46.4484 76.5497Z" fill="black"/>
<path d="M27.2186 71.9828C27.5971 71.6387 30.2025 71.6574 30.5172 72.0064C30.717 72.2285 30.7402 72.8403 30.7402 77.9601V83.6668H33.8079C36.0124 83.6668 36.9195 83.7123 37.0372 83.8289C37.2926 84.0857 37.2522 86.3 36.9871 86.5665C36.8027 86.7515 36.1684 86.7794 32.0858 86.7794C28.0031 86.7794 27.3688 86.7515 27.1844 86.5665C26.9976 86.3787 26.9729 85.5303 26.9729 79.2804C26.9729 72.5995 26.9862 72.1943 27.2186 71.9828Z" fill="black"/>
<path d="M59.8921 72.2123C60.1033 72.4618 61.6388 74.5112 63.3039 76.7669L66.3313 80.8687L66.3664 76.5593C66.3975 72.789 66.4297 72.2197 66.6227 72.0047C66.8068 71.8002 67.0592 71.7594 68.1386 71.7594C69.0927 71.7594 69.5122 71.8144 69.7326 71.9696L70.031 72.1799V79.2558C70.031 85.9385 70.0177 86.3436 69.7853 86.5552C69.5937 86.7294 69.264 86.7794 68.2966 86.7794C67.613 86.7794 66.9484 86.7223 66.8202 86.6533C66.6904 86.5821 65.1055 84.5483 63.2969 82.1319L60.0071 77.7367L59.9711 82.0767C59.9472 85.0026 59.8872 86.4743 59.7868 86.5981C59.605 86.8183 56.9078 86.8475 56.5417 86.6331C56.3222 86.5045 56.3065 86.0111 56.3065 79.3399C56.3065 73.0155 56.3311 72.1594 56.518 71.9714C56.683 71.8057 57.0358 71.7594 58.119 71.7594H59.5077L59.8921 72.2123Z" fill="black"/>
<path d="M8.53828 71.7594C9.48386 71.7594 9.90262 71.8147 10.1226 71.9696L10.4219 72.1799V79.3172C10.4219 84.685 10.3818 86.4926 10.2604 86.6165C10.0589 86.8191 7.23287 86.833 6.88985 86.6331C6.67029 86.5045 6.65374 86.0111 6.65374 79.3373V72.1799L6.95305 71.9696C7.17307 71.8147 7.59239 71.7594 8.53828 71.7594Z" fill="black"/>
<path fill-rule="evenodd" clip-rule="evenodd" d="M77.6675 71.7927C80.5008 71.8474 81.1549 71.9 82.0492 72.1431C83.5081 72.5396 84.6249 73.1671 85.5743 74.1239C86.9795 75.5401 87.5238 76.9587 87.5238 79.2015C87.5238 79.9289 87.434 80.8472 87.3184 81.2935C86.6721 83.7885 84.7245 85.6271 81.9132 86.3975C81.0053 86.6462 80.4094 86.6922 77.4998 86.7356C75.2532 86.7691 74.0574 86.7373 73.9002 86.6401C73.6807 86.5047 73.6649 86.0081 73.6649 79.3329V72.1711L74.0002 71.9495C74.2953 71.7552 74.741 71.7362 77.6675 71.7927ZM77.3647 83.6939L78.8454 83.6414C80.1199 83.5964 80.4423 83.5353 81.1662 83.2034C83.0545 82.3373 83.9798 80.5244 83.6222 78.392C83.3669 76.8707 82.6156 75.9274 81.125 75.2566C80.6011 75.0209 80.1306 74.9443 78.9121 74.8983L77.3647 74.8405V83.6939Z" fill="black"/>
</svg>
